<svg width="22" height="17" viewBox="0 0 22 17" fill="none" xmlns="http://www.w3.org/2000/svg">
<path d="M18.5877 5.5277L20.8735 2.87522C21.0245 2.7027 21.0676 2.48705 21.0029 2.2714C20.9382 2.05575 20.7657 1.9048 20.5501 1.86167L13.563 0.201167C13.3474 0.136472 13.1102 0.222732 12.9592 0.395251L10.7812 2.91835L8.6031 0.416816C8.45215 0.244297 8.21493 0.158037 7.99929 0.222732L1.01225 1.88323C0.7966 1.92636 0.624081 2.09888 0.559386 2.29296C0.494691 2.48705 0.537821 2.72426 0.688776 2.89678L2.97466 5.54927L0.688776 8.18019C0.537821 8.35271 0.494691 8.56836 0.559386 8.78401C0.624081 8.99966 0.7966 9.15061 1.01225 9.19374L3.16874 9.7113V14.7144C3.16874 15.0163 3.36283 15.2535 3.64317 15.3182L10.6302 16.9787C10.6733 17.0002 10.738 17.0002 10.7812 17.0002C10.8243 17.0002 10.8674 17.0002 10.9321 16.9787L17.9192 15.3182C18.1995 15.2535 18.3936 14.9947 18.3936 14.7144V9.7113L20.5501 9.19374C20.7657 9.15061 20.9382 8.97809 21.0029 8.78401C21.0676 8.56836 21.0245 8.35271 20.8735 8.18019L18.5877 5.5277ZM6.46818 5.5277L10.7812 4.49259L15.0941 5.5277L10.7812 6.56282L6.46818 5.5277ZM13.6493 1.49506L19.2777 2.83209L17.5525 4.83763L12.3554 3.60843L11.9241 3.5006L13.6493 1.49506ZM7.91303 1.49506L9.63822 3.5006L9.16379 3.62999L4.03134 4.85919L2.30615 2.85365L7.91303 1.49506ZM4.00977 6.21778L9.63822 7.55481L7.91303 9.56034L2.28458 8.22332L4.00977 6.21778ZM4.41951 14.2184V10.0132L7.99929 10.8758C8.04242 10.8974 8.08555 10.8974 8.15024 10.8974C8.32276 10.8974 8.49528 10.8111 8.62467 10.6817L10.1773 8.89183V15.6201L4.41951 14.2184ZM17.1428 14.2184L11.4065 15.577V8.87027L12.9592 10.6602C13.0886 10.7895 13.2396 10.8758 13.4336 10.8758C13.4768 10.8758 13.5199 10.8758 13.5846 10.8542L17.1644 9.99164V14.2184H17.1428ZM13.6493 9.56034L11.9241 7.55481L17.5525 6.21778L19.2777 8.22332L13.6493 9.56034Z" fill="white" fill-opacity="0.8"/>
</svg>
