<svg width="24" height="24" viewBox="0 0 24 24" fill="none" xmlns="http://www.w3.org/2000/svg">
<path d="M15.4429 8.5005H17.4899C17.6252 8.5005 17.7372 8.54217 17.8259 8.6255C17.9146 8.70883 17.9692 8.81817 17.9899 8.9535L18.2869 12.0005H17.2869L17.0369 9.5005H15.4429V11.0005C15.4429 11.1465 15.3961 11.2663 15.3024 11.36C15.2087 11.4537 15.0889 11.5005 14.9429 11.5005C14.7969 11.5005 14.6771 11.4537 14.5834 11.36C14.4897 11.2663 14.4429 11.1465 14.4429 11.0005V9.5005H10.4429V11.0005C10.4429 11.1465 10.396 11.2663 10.3024 11.36C10.2087 11.4537 10.0889 11.5005 9.94287 11.5005C9.79687 11.5005 9.67703 11.4537 9.58337 11.36C9.4897 11.2663 9.44287 11.1465 9.44287 11.0005V9.5005H7.84887L7.05187 17.5005H12.4424V18.5005H6.48937C6.34337 18.5005 6.22103 18.4458 6.12237 18.3365C6.0237 18.2272 5.9847 18.0995 6.00537 17.9535L6.89587 8.9535C6.91687 8.81817 6.97153 8.70883 7.05987 8.6255C7.1482 8.54217 7.2602 8.5005 7.39587 8.5005H9.44287V8.1565C9.46387 7.2605 9.75553 6.51567 10.3179 5.922C10.8802 5.32833 11.5885 5.021 12.4429 5C13.2972 5.021 14.0055 5.32833 14.5679 5.922C15.1302 6.51567 15.4219 7.2605 15.4429 8.1565V8.5005ZM14.4429 8.5005V8.1565C14.4325 7.54183 14.2372 7.03133 13.8569 6.625C13.4765 6.21867 13.0052 6.01033 12.4429 6C11.8802 6.01033 11.4089 6.21867 11.0289 6.625C10.6489 7.03133 10.4535 7.54183 10.4429 8.1565V8.5005H14.4429ZM17.5834 16.063L16.4429 14.9065V18.5005C16.4429 18.6465 16.3961 18.7663 16.3024 18.86C16.2087 18.9537 16.0889 19.0005 15.9429 19.0005C15.7969 19.0005 15.6771 18.9537 15.5834 18.86C15.4897 18.7663 15.4429 18.6465 15.4429 18.5005V14.9065L14.3024 16.063C14.1564 16.1983 13.9924 16.24 13.8104 16.188C13.6284 16.136 13.5137 16.0188 13.4664 15.8365C13.419 15.6542 13.458 15.4953 13.5834 15.36L15.5834 13.36C15.6877 13.2557 15.8076 13.2035 15.9429 13.2035C16.0782 13.2035 16.1981 13.2557 16.3024 13.36L18.3024 15.36C18.4274 15.4953 18.4664 15.6542 18.4194 15.8365C18.3724 16.0188 18.2577 16.136 18.0754 16.188C17.8931 16.24 17.7291 16.1983 17.5834 16.063Z" fill="white" fill-opacity="0.8" stroke="white" stroke-opacity="0.8"/>
</svg>
