<svg width="22" height="19" viewBox="0 0 22 19" fill="none" xmlns="http://www.w3.org/2000/svg">
<path d="M7.64603 14.26L11.038 16.422L14.43 14.261L16.29 15.446L11.038 18.792L5.78603 15.446L7.64603 14.261V14.26ZM6.76903 5.98002L9.16203 4.42702L6.73703 2.85302L4.28003 4.37002L6.77003 5.98002H6.76903ZM8.60903 7.17002L11 8.71902L13.39 7.17202L11 5.61902L8.60903 7.17102V7.17002ZM12.84 9.91002L15.264 11.478L17.714 9.97602L15.229 8.36402L12.84 9.90902V9.91002ZM11 3.23402L15.237 0.486023L21.46 4.33002L17.068 7.17302L21.461 10.023L15.235 13.842L11 11.1L6.76503 13.84L0.535034 10.023L4.93103 7.17202L0.539034 4.33002L6.76303 0.487023L11 3.23502V3.23402ZM12.837 4.42602L15.23 5.98002L17.719 4.37002L15.263 2.85302L12.837 4.42702V4.42602ZM9.16003 9.91002L6.77003 8.36402L4.28403 9.97702L6.73503 11.479L9.16003 9.91002Z" fill="white" fill-opacity="0.8"/>
</svg>
