<svg width="53" height="43" viewBox="0 0 53 43" fill="none" xmlns="http://www.w3.org/2000/svg">
<rect width="53" height="43" fill="#2CCE8A"/>
<path d="M17.2222 9H36.7778C37.1019 9 37.4128 9.1317 37.642 9.36612C37.8712 9.60054 38 9.91848 38 10.25V32.75C38 33.0815 37.8712 33.3995 37.642 33.6339C37.4128 33.8683 37.1019 34 36.7778 34H17.2222C16.8981 34 16.5872 33.8683 16.358 33.6339C16.1288 33.3995 16 33.0815 16 32.75V10.25C16 9.91848 16.1288 9.60054 16.358 9.36612C16.5872 9.1317 16.8981 9 17.2222 9ZM20.8889 21.5V24H23.3333V21.5H20.8889ZM20.8889 26.5V29H23.3333V26.5H20.8889ZM25.7778 21.5V24H28.2222V21.5H25.7778ZM25.7778 26.5V29H28.2222V26.5H25.7778ZM30.6667 21.5V29H33.1111V21.5H30.6667ZM20.8889 14V19H33.1111V14H20.8889Z" fill="white"/>
</svg>
