<svg width="66" height="43" viewBox="0 0 66 43" fill="none" xmlns="http://www.w3.org/2000/svg">
<rect width="66" height="43" fill="#2CCE8A"/>
<path d="M33 25C33.7956 25 34.5587 24.6839 35.1213 24.1213C35.6839 23.5587 36 22.7956 36 22C36 21.2044 35.6839 20.4413 35.1213 19.8787C34.5587 19.3161 33.7956 19 33 19C32.2044 19 31.4413 19.3161 30.8787 19.8787C30.3161 20.4413 30 21.2044 30 22C30 22.7956 30.3161 23.5587 30.8787 24.1213C31.4413 24.6839 32.2044 25 33 25Z" fill="white"/>
<path d="M21 16C21 15.6022 21.158 15.2206 21.4393 14.9393C21.7206 14.658 22.1022 14.5 22.5 14.5H43.5C43.8978 14.5 44.2794 14.658 44.5607 14.9393C44.842 15.2206 45 15.6022 45 16V28C45 28.3978 44.842 28.7794 44.5607 29.0607C44.2794 29.342 43.8978 29.5 43.5 29.5H22.5C22.1022 29.5 21.7206 29.342 21.4393 29.0607C21.158 28.7794 21 28.3978 21 28V16ZM25.5 16C25.5 16.7956 25.1839 17.5587 24.6213 18.1213C24.0587 18.6839 23.2956 19 22.5 19V25C23.2956 25 24.0587 25.3161 24.6213 25.8787C25.1839 26.4413 25.5 27.2044 25.5 28H40.5C40.5 27.2044 40.8161 26.4413 41.3787 25.8787C41.9413 25.3161 42.7044 25 43.5 25V19C42.7044 19 41.9413 18.6839 41.3787 18.1213C40.8161 17.5587 40.5 16.7956 40.5 16H25.5Z" fill="white"/>
</svg>
