<svg width="100" height="43" viewBox="0 0 100 43" fill="none" xmlns="http://www.w3.org/2000/svg">
<rect width="100" height="43" fill="#2CCE8A"/>
<path d="M21.5625 22.0625H30V30.5H21.5625V22.0625ZM21.5625 20.9375V12.5H30V20.9375H21.5625ZM20.4375 20.9375H12V12.5H20.4375V20.9375ZM20.4375 22.0625V30.5H12V22.0625H20.4375Z" fill="white"/>
<path d="M47.4551 28V13.6836H52.0938C53.8516 13.6836 54.9974 13.7552 55.5312 13.8984C56.3516 14.1133 57.0384 14.582 57.5918 15.3047C58.1452 16.0208 58.4219 16.9486 58.4219 18.0879C58.4219 18.9668 58.2624 19.7057 57.9434 20.3047C57.6243 20.9036 57.2174 21.3757 56.7227 21.7207C56.2344 22.0592 55.7363 22.2839 55.2285 22.3945C54.5384 22.5312 53.5391 22.5996 52.2305 22.5996H50.3457V28H47.4551ZM50.3457 16.1055V20.168H51.9277C53.0671 20.168 53.8288 20.0931 54.2129 19.9434C54.597 19.7936 54.8965 19.5592 55.1113 19.2402C55.3327 18.9212 55.4434 18.5501 55.4434 18.127C55.4434 17.6061 55.2904 17.1764 54.9844 16.8379C54.6784 16.4993 54.291 16.2878 53.8223 16.2031C53.4772 16.138 52.7839 16.1055 51.7422 16.1055H50.3457ZM60.209 20.9297C60.209 19.4714 60.4271 18.2474 60.8633 17.2578C61.1888 16.5286 61.6315 15.8743 62.1914 15.2949C62.7578 14.7155 63.3763 14.2858 64.0469 14.0059C64.9388 13.6283 65.9674 13.4395 67.1328 13.4395C69.2422 13.4395 70.9284 14.0938 72.1914 15.4023C73.4609 16.7109 74.0957 18.5306 74.0957 20.8613C74.0957 23.1725 73.4674 24.9824 72.2109 26.291C70.9544 27.5931 69.2747 28.2441 67.1719 28.2441C65.043 28.2441 63.3503 27.5964 62.0938 26.3008C60.8372 24.9987 60.209 23.2083 60.209 20.9297ZM63.1875 20.832C63.1875 22.4531 63.5618 23.6836 64.3105 24.5234C65.0592 25.3568 66.0098 25.7734 67.1621 25.7734C68.3145 25.7734 69.2585 25.36 69.9941 24.5332C70.7363 23.6999 71.1074 22.4531 71.1074 20.793C71.1074 19.1523 70.7461 17.9284 70.0234 17.1211C69.3073 16.3138 68.3535 15.9102 67.1621 15.9102C65.9707 15.9102 65.0104 16.3203 64.2812 17.1406C63.5521 17.9544 63.1875 19.1849 63.1875 20.832ZM75.6289 23.3418L78.4414 23.0684C78.6107 24.0124 78.9525 24.7057 79.4668 25.1484C79.9876 25.5911 80.6875 25.8125 81.5664 25.8125C82.4974 25.8125 83.1973 25.6172 83.666 25.2266C84.1413 24.8294 84.3789 24.3672 84.3789 23.8398C84.3789 23.5013 84.278 23.2148 84.0762 22.9805C83.8809 22.7396 83.5358 22.5312 83.041 22.3555C82.7025 22.2383 81.931 22.0299 80.7266 21.7305C79.1771 21.3464 78.0898 20.8743 77.4648 20.3145C76.5859 19.5267 76.1465 18.5664 76.1465 17.4336C76.1465 16.7044 76.3516 16.0241 76.7617 15.3926C77.1784 14.7546 77.7741 14.2695 78.5488 13.9375C79.3301 13.6055 80.2708 13.4395 81.3711 13.4395C83.168 13.4395 84.5189 13.8333 85.4238 14.6211C86.3353 15.4089 86.8138 16.4603 86.8594 17.7754L83.9688 17.9023C83.8451 17.1667 83.5781 16.6393 83.168 16.3203C82.7643 15.9948 82.1556 15.832 81.3418 15.832C80.502 15.832 79.8444 16.0046 79.3691 16.3496C79.0632 16.571 78.9102 16.8672 78.9102 17.2383C78.9102 17.5768 79.0534 17.8665 79.3398 18.1074C79.7044 18.4134 80.5898 18.7324 81.9961 19.0645C83.4023 19.3965 84.4408 19.7415 85.1113 20.0996C85.7884 20.4512 86.3158 20.9362 86.6934 21.5547C87.0775 22.1667 87.2695 22.9251 87.2695 23.8301C87.2695 24.6504 87.0417 25.4186 86.5859 26.1348C86.1302 26.8509 85.4857 27.3848 84.6523 27.7363C83.819 28.0814 82.7806 28.2539 81.5371 28.2539C79.7272 28.2539 78.3372 27.8372 77.3672 27.0039C76.3971 26.1641 75.8177 24.9434 75.6289 23.3418Z" fill="white"/>
</svg>
