<svg width="40" height="41" viewBox="0 0 40 41" fill="none" xmlns="http://www.w3.org/2000/svg">
<circle cx="20" cy="20.5" r="19.5" fill="#06B00F" stroke="white"/>
<path d="M5.178 18.352H2.182V16.504H10.372V18.352H7.376V26.5H5.178V18.352ZM11.5246 16.504H19.0006V18.352H13.7226V20.494H18.5666V22.202H13.7226V24.652H19.1126V26.5H11.5246V16.504ZM22.1007 23.182C22.1007 23.518 22.1614 23.8027 22.2827 24.036C22.4041 24.2693 22.5627 24.4607 22.7587 24.61C22.9641 24.75 23.2021 24.8573 23.4727 24.932C23.7434 24.9973 24.0234 25.03 24.3127 25.03C24.5087 25.03 24.7187 25.016 24.9427 24.988C25.1667 24.9507 25.3767 24.8853 25.5727 24.792C25.7687 24.6987 25.9321 24.5727 26.0627 24.414C26.1934 24.246 26.2587 24.036 26.2587 23.784C26.2587 23.5133 26.1701 23.294 25.9927 23.126C25.8247 22.958 25.6007 22.818 25.3207 22.706C25.0407 22.594 24.7234 22.496 24.3687 22.412C24.0141 22.328 23.6547 22.2347 23.2907 22.132C22.9174 22.0387 22.5534 21.9267 22.1987 21.796C21.8441 21.656 21.5267 21.4787 21.2467 21.264C20.9667 21.0493 20.7381 20.7833 20.5607 20.466C20.3927 20.1393 20.3087 19.7473 20.3087 19.29C20.3087 18.7767 20.4161 18.3333 20.6307 17.96C20.8547 17.5773 21.1441 17.26 21.4987 17.008C21.8534 16.756 22.2547 16.5693 22.7027 16.448C23.1507 16.3267 23.5987 16.266 24.0467 16.266C24.5694 16.266 25.0687 16.3267 25.5447 16.448C26.0301 16.56 26.4594 16.7467 26.8327 17.008C27.2061 17.2693 27.5001 17.6053 27.7147 18.016C27.9387 18.4173 28.0507 18.9073 28.0507 19.486H25.9227C25.9041 19.1873 25.8387 18.94 25.7267 18.744C25.6241 18.548 25.4841 18.394 25.3067 18.282C25.1294 18.17 24.9241 18.0907 24.6907 18.044C24.4667 17.9973 24.2194 17.974 23.9487 17.974C23.7714 17.974 23.5941 17.9927 23.4167 18.03C23.2394 18.0673 23.0761 18.1327 22.9267 18.226C22.7867 18.3193 22.6701 18.436 22.5767 18.576C22.4834 18.716 22.4367 18.8933 22.4367 19.108C22.4367 19.304 22.4741 19.4627 22.5487 19.584C22.6234 19.7053 22.7681 19.8173 22.9827 19.92C23.2067 20.0227 23.5101 20.1253 23.8927 20.228C24.2847 20.3307 24.7934 20.4613 25.4187 20.62C25.6054 20.6573 25.8621 20.7273 26.1887 20.83C26.5247 20.9233 26.8561 21.0773 27.1827 21.292C27.5094 21.5067 27.7894 21.796 28.0227 22.16C28.2654 22.5147 28.3867 22.972 28.3867 23.532C28.3867 23.9893 28.2981 24.414 28.1207 24.806C27.9434 25.198 27.6774 25.5387 27.3227 25.828C26.9774 26.108 26.5434 26.3273 26.0207 26.486C25.5074 26.6447 24.9101 26.724 24.2287 26.724C23.6781 26.724 23.1414 26.654 22.6187 26.514C22.1054 26.3833 21.6481 26.1733 21.2467 25.884C20.8547 25.5947 20.5421 25.226 20.3087 24.778C20.0754 24.33 19.9634 23.798 19.9727 23.182H22.1007ZM31.9065 18.352H28.9105V16.504H37.1005V18.352H34.1045V26.5H31.9065V18.352Z" fill="white"/>
</svg>
