<svg width="14" height="11" viewBox="0 0 14 11" fill="none" xmlns="http://www.w3.org/2000/svg">
<path fill-rule="evenodd" clip-rule="evenodd" d="M1.66659 0.166656C1.31296 0.166656 0.973825 0.307132 0.723776 0.557181C0.473728 0.807229 0.333252 1.14637 0.333252 1.49999V9.49999C0.333252 9.85361 0.473728 10.1927 0.723776 10.4428C0.973825 10.6928 1.31296 10.8333 1.66659 10.8333H12.3333C12.6869 10.8333 13.026 10.6928 13.2761 10.4428C13.5261 10.1927 13.6666 9.85361 13.6666 9.49999V1.49999C13.6666 1.14637 13.5261 0.807229 13.2761 0.557181C13.026 0.307132 12.6869 0.166656 12.3333 0.166656H1.66659ZM1.66659 5.49999V9.49999H6.33325V5.49999H1.66659ZM12.3333 9.49999H7.66658V5.49999H12.3333V9.49999Z" fill="black"/>
</svg>
