<svg width="12" height="12" viewBox="0 0 12 12" fill="none" xmlns="http://www.w3.org/2000/svg">
<path d="M2.66675 12C2.30008 12 1.98631 11.8696 1.72542 11.6087C1.46453 11.3478 1.33386 11.0338 1.33342 10.6667V2C1.14453 2 0.986306 1.936 0.85875 1.808C0.731195 1.68 0.667195 1.52178 0.66675 1.33333C0.666306 1.14489 0.730306 0.986667 0.85875 0.858667C0.987195 0.730667 1.14542 0.666667 1.33342 0.666667H4.00008C4.00008 0.477778 4.06408 0.319556 4.19208 0.192C4.32008 0.0644445 4.47831 0.000444444 4.66675 0H7.33342C7.52231 0 7.68075 0.0640001 7.80875 0.192C7.93675 0.32 8.00053 0.478222 8.00008 0.666667H10.6668C10.8556 0.666667 11.0141 0.730667 11.1421 0.858667C11.2701 0.986667 11.3339 1.14489 11.3334 1.33333C11.333 1.52178 11.269 1.68022 11.1414 1.80867C11.0139 1.93711 10.8556 2.00089 10.6668 2V10.6667C10.6668 11.0333 10.5363 11.3473 10.2754 11.6087C10.0145 11.87 9.70053 12.0004 9.33342 12H2.66675ZM4.66675 9.33333C4.85564 9.33333 5.01408 9.26933 5.14208 9.14133C5.27008 9.01333 5.33386 8.85511 5.33342 8.66667V4C5.33342 3.81111 5.26942 3.65289 5.14142 3.52533C5.01342 3.39778 4.8552 3.33378 4.66675 3.33333C4.47831 3.33289 4.32008 3.39689 4.19208 3.52533C4.06408 3.65378 4.00008 3.812 4.00008 4V8.66667C4.00008 8.85555 4.06408 9.014 4.19208 9.142C4.32008 9.27 4.47831 9.33378 4.66675 9.33333ZM7.33342 9.33333C7.52231 9.33333 7.68075 9.26933 7.80875 9.14133C7.93675 9.01333 8.00053 8.85511 8.00008 8.66667V4C8.00008 3.81111 7.93608 3.65289 7.80808 3.52533C7.68008 3.39778 7.52186 3.33378 7.33342 3.33333C7.14497 3.33289 6.98675 3.39689 6.85875 3.52533C6.73075 3.65378 6.66675 3.812 6.66675 4V8.66667C6.66675 8.85555 6.73075 9.014 6.85875 9.142C6.98675 9.27 7.14497 9.33378 7.33342 9.33333Z" fill="white"/>
</svg>
