<svg width="12" height="16" viewBox="0 0 12 16" fill="none" xmlns="http://www.w3.org/2000/svg">
<path fill-rule="evenodd" clip-rule="evenodd" d="M6.00008 0.833344V5.16668C6.00008 5.43189 6.10544 5.68625 6.29297 5.87378C6.48051 6.06132 6.73487 6.16668 7.00008 6.16668H11.3334V12.8333C11.3334 13.187 11.1929 13.5261 10.9429 13.7762C10.6928 14.0262 10.3537 14.1667 10.0001 14.1667H2.00008C1.64646 14.1667 1.30732 14.0262 1.05727 13.7762C0.807224 13.5261 0.666748 13.187 0.666748 12.8333V2.16668C0.666748 1.81305 0.807224 1.47392 1.05727 1.22387C1.30732 0.973819 1.64646 0.833344 2.00008 0.833344H6.00008ZM5.34075 7.39868C5.18116 8.41405 4.65017 9.33397 3.85075 9.98001C3.25941 10.4573 3.80008 11.394 4.50941 11.1213C5.46863 10.7519 6.53087 10.7519 7.49008 11.1213C8.19941 11.3947 8.74008 10.458 8.14875 9.98001C7.34933 9.33397 6.81833 8.41405 6.65875 7.39868C6.54075 6.64801 5.45875 6.64734 5.34075 7.39868ZM6.00008 9.03534L6.53741 9.96468H5.46408L6.00008 9.03534ZM7.33342 0.86201C7.586 0.91558 7.8176 1.04134 8.00008 1.22401L10.9427 4.16668C11.1254 4.34916 11.2512 4.58076 11.3047 4.83334H7.33342V0.86201Z" fill="black"/>
</svg>
