<svg width="12" height="16" viewBox="0 0 12 16" fill="none" xmlns="http://www.w3.org/2000/svg">
<g clip-path="url(#clip0_3_295)">
<path d="M7 4.25V0H0.75C0.334375 0 0 0.334375 0 0.75V15.25C0 15.6656 0.334375 16 0.75 16H11.25C11.6656 16 12 15.6656 12 15.25V5H7.75C7.3375 5 7 4.6625 7 4.25ZM4 8.75C4 8.88813 3.88812 9 3.75 9H3.5C3.22375 9 3 9.22375 3 9.5V10.5C3 10.7762 3.22375 11 3.5 11H3.75C3.88812 11 4 11.1119 4 11.25V11.75C4 11.8881 3.88812 12 3.75 12H3.5C2.67156 12 2 11.3284 2 10.5V9.5C2 8.67156 2.67156 8 3.5 8H3.75C3.88812 8 4 8.11187 4 8.25V8.75ZM5.38344 12H5C4.86188 12 4.75 11.8881 4.75 11.75V11.25C4.75 11.1119 4.86188 11 5 11H5.38344C5.56938 11 5.70875 10.8906 5.70875 10.7931C5.70875 10.7525 5.68531 10.71 5.6425 10.6731L4.95844 10.0866C4.69375 9.86094 4.54187 9.54031 4.54187 9.20719C4.54187 8.54156 5.13625 8.00031 5.86719 8.00031H6.25C6.38812 8.00031 6.5 8.11219 6.5 8.25031V8.75031C6.5 8.88844 6.38812 9.00031 6.25 9.00031H5.86656C5.68062 9.00031 5.54125 9.10969 5.54125 9.20719C5.54125 9.24781 5.56469 9.29031 5.6075 9.32719L6.29156 9.91375C6.55625 10.1394 6.70813 10.46 6.70813 10.7931C6.70844 11.4584 6.11438 12 5.38344 12ZM8 8.25V8.9C8 9.53344 8.17813 10.1553 8.5 10.6775C8.82187 10.1556 9 9.53344 9 8.9V8.25C9 8.11187 9.11187 8 9.25 8H9.75C9.88813 8 10 8.11187 10 8.25V8.9C10 10.0087 9.5975 11.0528 8.86625 11.8403C8.77188 11.9419 8.63906 12 8.5 12C8.36094 12 8.22812 11.9419 8.13375 11.8403C7.4025 11.0528 7 10.0087 7 8.9V8.25C7 8.11187 7.11188 8 7.25 8H7.75C7.88812 8 8 8.11187 8 8.25ZM11.7812 3.28125L8.72188 0.21875C8.58125 0.078125 8.39062 0 8.19063 0H8V4H12V3.80938C12 3.6125 11.9219 3.42188 11.7812 3.28125Z" fill="black"/>
</g>
<defs>
<clipPath id="clip0_3_295">
<rect width="12" height="16" fill="white"/>
</clipPath>
</defs>
</svg>
