<svg width="15" height="8" viewBox="0 0 15 8" fill="none" xmlns="http://www.w3.org/2000/svg">
<path d="M7.5 0.143005C3.727 0.143005 0.75 4.00001 0.75 4.00001C0.75 4.00001 3.727 7.85751 7.5 7.85751C10.385 7.85751 14.25 4.00001 14.25 4.00001C14.25 4.00001 10.385 0.143005 7.5 0.143005ZM7.5 6.40301C6.175 6.40301 5.0965 5.32501 5.0965 4.00001C5.0965 2.67501 6.175 1.59651 7.5 1.59651C8.825 1.59651 9.9035 2.67501 9.9035 4.00001C9.9035 5.32501 8.825 6.40301 7.5 6.40301ZM7.5 2.59701C7.31356 2.59349 7.12829 2.62717 6.95502 2.69608C6.78174 2.76499 6.62395 2.86776 6.49085 2.99836C6.35776 3.12897 6.25203 3.2848 6.17986 3.45674C6.10769 3.62868 6.07052 3.81328 6.07052 3.99976C6.07052 4.18623 6.10769 4.37083 6.17986 4.54277C6.25203 4.71471 6.35776 4.87054 6.49085 5.00115C6.62395 5.13175 6.78174 5.23452 6.95502 5.30343C7.12829 5.37234 7.31356 5.40603 7.5 5.40251C7.86745 5.39557 8.2175 5.24473 8.47491 4.98242C8.73231 4.72011 8.87652 4.36727 8.87652 3.99976C8.87652 3.63224 8.73231 3.2794 8.47491 3.01709C8.2175 2.75478 7.86745 2.60394 7.5 2.59701Z" fill="white"/>
</svg>
