<svg width="18" height="21" viewBox="0 0 18 21" fill="none" xmlns="http://www.w3.org/2000/svg">
<path d="M3 8.5C2.99945 7.25336 3.38723 6.0375 4.10945 5.02138C4.83167 4.00525 5.85247 3.23932 7.03 2.83C6.9844 2.54431 7.00132 2.25213 7.0796 1.97361C7.15788 1.6951 7.29565 1.43688 7.48341 1.21678C7.67117 0.996676 7.90444 0.819927 8.16714 0.698728C8.42983 0.577528 8.71569 0.514763 9.005 0.514763C9.29431 0.514763 9.58017 0.577528 9.84286 0.698728C10.1056 0.819927 10.3388 0.996676 10.5266 1.21678C10.7143 1.43688 10.8521 1.6951 10.9304 1.97361C11.0087 2.25213 11.0256 2.54431 10.98 2.83C12.1557 3.24099 13.1743 4.00764 13.8946 5.02363C14.615 6.03961 15.0013 7.25457 15 8.5V14.5L18 16.5V17.5H0V16.5L3 14.5V8.5ZM11 18.5C11 19.0304 10.7893 19.5391 10.4142 19.9142C10.0391 20.2893 9.53043 20.5 9 20.5C8.46957 20.5 7.96086 20.2893 7.58579 19.9142C7.21071 19.5391 7 19.0304 7 18.5H11Z" fill="white"/>
</svg>
