<svg width="16" height="16" viewBox="0 0 16 16" fill="none" xmlns="http://www.w3.org/2000/svg">
<path d="M12 11.3344H4V12H12V11.3344ZM3.33437 0.665625H9.33438V4H12.6687V5.33437H13.3344V3.33437L10 0H2.66563V5.33437H3.33125V0.665625H3.33437ZM14 6H2C0.665625 6 0 6.66563 0 8V12H2.66563V16H13.3313V12H16V8C16 6.66563 15.3344 6 14 6ZM2.66563 8.66562H1.33438V7.33125H2.66875V8.66562H2.66563ZM12.6656 15.3344H3.33437V10.6656H12.6687V15.3344H12.6656ZM12 12.6656H4V13.3313H12V12.6656ZM12 14H4V14.6656H12V14Z" fill="black"/>
</svg>
