<svg width="20" height="18" viewBox="0 0 20 18" fill="none" xmlns="http://www.w3.org/2000/svg">
<path d="M15.8081 17.0664C15.7222 17.1711 15.6142 17.2553 15.4917 17.313C15.3692 17.3707 15.2355 17.4004 15.1001 17.4C14.9823 17.4007 14.8657 17.3778 14.757 17.3324C14.6483 17.287 14.5499 17.2202 14.4677 17.136L10.8629 13.5264C10.6943 13.3576 10.5997 13.1289 10.5997 12.8904C10.5997 12.6519 10.6943 12.4231 10.8629 12.2544C11.0316 12.0859 11.2604 11.9912 11.4989 11.9912C11.7374 11.9912 11.9661 12.0859 12.1349 12.2544L14.2001 14.3328V1.49999C14.2001 1.2613 14.2949 1.03238 14.4637 0.863597C14.6325 0.694815 14.8614 0.599994 15.1001 0.599994C15.3388 0.599994 15.5677 0.694815 15.7365 0.863597C15.9053 1.03238 16.0001 1.2613 16.0001 1.49999V14.3208L18.0665 12.2592C18.2352 12.091 18.4637 11.9966 18.7019 11.9966C18.9401 11.9966 19.1686 12.091 19.3373 12.2592C19.5058 12.4279 19.6005 12.6567 19.6005 12.8952C19.6005 13.1337 19.5058 13.3624 19.3373 13.5312L15.8081 17.0664ZM5.60809 0.933594C5.52223 0.828927 5.41415 0.744687 5.29169 0.686985C5.16923 0.629283 5.03546 0.599567 4.90009 0.599994C4.78234 0.599238 4.66566 0.622227 4.557 0.667587C4.44834 0.712947 4.34995 0.779747 4.26769 0.863994L0.664087 4.47359C0.495546 4.64234 0.400879 4.87109 0.400879 5.10959C0.400879 5.34809 0.495546 5.57684 0.664087 5.74559C0.832837 5.91413 1.06159 6.0088 1.30009 6.0088C1.53859 6.0088 1.76734 5.91413 1.93609 5.74559L4.00009 3.66839V16.5C4.00009 16.7387 4.09491 16.9676 4.26369 17.1364C4.43247 17.3052 4.66139 17.4 4.90009 17.4C5.13878 17.4 5.3677 17.3052 5.53648 17.1364C5.70527 16.9676 5.80009 16.7387 5.80009 16.5V3.67919L7.86649 5.74079C8.03519 5.90897 8.26368 6.0034 8.50189 6.0034C8.74009 6.0034 8.96859 5.90897 9.13729 5.74079C9.30583 5.57204 9.4005 5.34329 9.4005 5.10479C9.4005 4.86629 9.30583 4.63754 9.13729 4.46879L5.60809 0.933594Z" fill="#B1B7C4"/>
</svg>
