<svg width="144" height="55" viewBox="0 0 144 55" fill="none" xmlns="http://www.w3.org/2000/svg">
<path d="M138.461 52.1346C136.563 52.1346 134.84 52.1912 133.129 52.0969C132.698 52.0718 132.167 51.6508 131.893 51.2612C130.144 48.7541 128.459 46.203 126.748 43.6707C126.542 43.3691 126.311 43.08 126.036 42.7093C125.262 43.457 124.537 44.142 123.832 44.8331C120.373 48.2388 116.645 51.2801 112.261 53.4291C110.588 54.2522 108.852 54.9057 106.992 54.9811C103.882 55.113 101.472 53.9569 100.673 50.1239C100.192 47.8241 100.535 43.6518 101.366 41.4086C101.434 42.4328 101.441 43.4319 101.578 44.4184C102.065 47.9372 104.7 49.5144 108.147 48.8672C111.568 48.2263 114.384 46.4229 116.97 44.1797C118.805 42.5899 120.647 41.0127 122.483 39.423C123.245 38.7632 123.301 38.4679 122.745 37.6259C119.898 33.3468 117.038 29.0803 114.185 24.8074C113.791 24.2168 113.273 23.9277 112.549 23.9592C111.774 23.9969 111 23.9654 110.226 23.9654C109.352 23.9717 109.071 24.2482 109.071 25.1467C109.065 27.1826 109.052 29.2185 109.083 31.2481C109.096 31.9016 108.877 32.1341 108.215 32.1089C107.116 32.065 106.017 32.1027 104.919 32.0964C104.063 32.0901 103.907 31.9456 103.907 31.0847C103.901 28.7221 103.901 26.3595 103.901 24.0031C103.901 18.7312 103.901 13.453 103.901 8.18114C103.901 7.2009 103.907 7.2009 104.894 7.2009C108.64 7.2009 112.386 7.18205 116.133 7.21975C117.581 7.23232 119.018 7.45853 120.329 8.14343C123.02 9.53838 124.337 11.8256 124.5 14.804C124.681 18.1343 123.507 20.7985 120.541 22.4951C119.149 23.2931 119.136 23.2743 120.023 24.5938C122.071 27.6539 124.119 30.714 126.173 33.7741C126.336 34.0191 126.523 34.2453 126.754 34.5532C127.054 34.1762 127.303 33.8746 127.541 33.5604C131.175 28.7724 134.353 23.7141 136.482 18.0526C137.675 14.8794 138.711 11.6497 138.524 8.1937C138.468 7.13806 138.243 6.04472 137.856 5.06449C137.007 2.91551 134.759 1.7719 132.492 2.18034C131.837 2.29972 131.187 2.43796 130.338 2.60762C132.836 1.06186 135.314 0.0187907 138.074 -6.00229e-05C141.053 -0.0189107 142.951 1.59596 143.681 4.81315C144.375 7.87324 143.781 10.8391 143.007 13.7861C141.159 20.8739 137.687 27.1701 133.554 33.1332C132.498 34.6538 131.356 36.1178 130.251 37.607C129.557 38.537 129.551 38.8575 130.207 39.8314C132.717 43.5513 135.221 47.2712 137.725 50.991C137.956 51.3115 138.156 51.6508 138.461 52.1346ZM109.077 15.5832C109.077 16.4126 109.077 17.242 109.077 18.0715C109.077 19.3407 109.146 19.4099 110.37 19.4099C111.843 19.4099 113.317 19.4224 114.79 19.4036C115.309 19.3973 115.839 19.347 116.345 19.2528C118.1 18.9197 119.23 17.4494 119.217 15.5643C119.205 13.6667 118.137 12.278 116.276 12.0895C114.197 11.8822 112.099 11.8822 110.014 11.8193C109.395 11.8005 109.052 12.1272 109.071 12.8058C109.096 13.7232 109.077 14.6532 109.077 15.5832Z" fill="white"/>
<path d="M8.55433 30.9842L0.0999046 10.349C0.0374642 10.1667 0 9.97195 0 9.76459C0 9.28076 0.137369 8.89746 0.412107 8.60842C0.686844 8.31938 1.06149 8.18114 1.54228 8.18114C1.86072 8.18114 2.15419 8.28167 2.41644 8.47646C2.67869 8.67125 2.8785 8.92888 3.01587 9.24934L11.0582 29.4321L19.1005 9.24934C19.2379 8.92888 19.4377 8.67125 19.6999 8.47646C19.9622 8.28167 20.2557 8.18114 20.5741 8.18114C21.0549 8.18114 21.4295 8.32566 21.7043 8.60842C21.979 8.89746 22.1164 9.28076 22.1164 9.76459C22.1164 9.97195 22.0789 10.1667 22.0165 10.349L13.5558 30.9842C13.075 32.0398 12.3694 32.5676 11.4328 32.5676H10.6773C9.7407 32.5676 9.03512 32.0398 8.55433 30.9842Z" fill="white"/>
<path d="M25.5694 10.7323C25.226 10.3867 25.0574 9.97195 25.0574 9.4944V9.35616C25.0574 8.87233 25.226 8.46389 25.5694 8.1183C25.9128 7.7727 26.3249 7.60305 26.7995 7.60305H27.0055C27.4863 7.60305 27.8922 7.7727 28.2356 8.1183C28.579 8.46389 28.7476 8.87861 28.7476 9.35616V9.4944C28.7476 9.97823 28.579 10.3867 28.2356 10.7323C27.8922 11.0779 27.4801 11.2475 27.0055 11.2475H26.7995C26.3187 11.2475 25.9128 11.0779 25.5694 10.7323ZM25.7754 32.1215C25.4757 31.8262 25.3321 31.4554 25.3321 31.0219V16.2429C25.3321 15.8094 25.482 15.4324 25.7754 15.1245C26.0689 14.8166 26.4373 14.6595 26.8681 14.6595C27.324 14.6595 27.6986 14.8103 27.9983 15.1056C28.2918 15.4072 28.4416 15.7842 28.4416 16.2429V31.0219C28.4416 31.4554 28.2855 31.8262 27.9796 32.1215C27.6736 32.4168 27.299 32.5676 26.8681 32.5676C26.4373 32.5676 26.0689 32.4168 25.7754 32.1215Z" fill="white"/>
<path d="M34.3297 32.1215C34.03 31.8262 33.8864 31.4554 33.8864 31.0219V16.2429C33.8864 15.8094 34.0362 15.4324 34.3297 15.1245C34.6231 14.8166 34.9915 14.6595 35.4224 14.6595C35.8532 14.6595 36.2279 14.8166 36.5338 15.1245C36.8398 15.4324 36.9959 15.8094 36.9959 16.2429V17.7259C38.5944 15.5706 40.3864 14.4898 42.372 14.4898H42.5406C42.9714 14.4898 43.3336 14.6406 43.6208 14.936C43.908 15.2313 44.0516 15.602 44.0516 16.0356C44.0516 16.4692 43.9018 16.8273 43.6083 17.1038C43.3086 17.3803 42.934 17.5185 42.4781 17.5185H42.3096C41.2169 17.5185 40.2116 17.7887 39.2999 18.3291C38.3883 18.8695 37.6203 19.6109 37.0084 20.5535V31.0219C37.0084 31.4554 36.8523 31.8262 36.5463 32.1215C36.2404 32.4168 35.8657 32.5676 35.4349 32.5676C34.9915 32.5676 34.6231 32.4168 34.3297 32.1215Z" fill="white"/>
<path d="M48.0541 28.1943V17.5185H45.6252C45.4441 17.5185 45.288 17.4557 45.1632 17.33C45.0383 17.2043 44.9758 17.0472 44.9758 16.865C44.9758 16.6325 45.0757 16.4377 45.2818 16.2806L49.9398 11.6999C50.1459 11.4926 50.3395 11.392 50.5205 11.392C50.7016 11.392 50.8577 11.4612 50.9826 11.5994C51.1075 11.7376 51.1699 11.901 51.1699 12.0832V14.8354H55.035C55.4221 14.8354 55.7406 14.9611 55.9903 15.2124C56.2401 15.4638 56.365 15.7842 56.365 16.1738C56.365 16.5383 56.2401 16.8587 55.9903 17.1226C55.7406 17.3866 55.4221 17.5185 55.035 17.5185H51.1699V27.9178C51.1699 28.8101 51.3822 29.3819 51.8006 29.6206C52.2252 29.8594 52.7559 29.9851 53.3928 29.9851C53.8486 29.9851 54.3044 29.916 54.7602 29.7777C54.8539 29.7526 54.9476 29.7337 55.0537 29.7086C55.1599 29.6835 55.2847 29.6772 55.4471 29.6772C55.7655 29.6772 56.0528 29.7966 56.3025 30.0416C56.5523 30.2804 56.6772 30.5757 56.6772 30.9213C56.6772 31.4492 56.4149 31.8513 55.8904 32.1278C54.9975 32.5425 54.0547 32.7499 53.0494 32.7499C49.7213 32.7373 48.0541 31.223 48.0541 28.1943Z" fill="white"/>
<path d="M62.8213 31.845C61.8972 31.2481 61.1916 30.4312 60.6983 29.4007C60.2051 28.3702 59.9615 27.2329 59.9615 25.9887V16.2052C59.9615 15.7717 60.1176 15.4009 60.4236 15.1056C60.7296 14.8103 61.1042 14.6595 61.535 14.6595C61.9659 14.6595 62.3343 14.8103 62.6278 15.1056C62.9212 15.4072 63.0711 15.7717 63.0711 16.2052V25.6431C63.0711 28.4456 64.3261 29.8468 66.8362 29.8468C67.9789 29.8468 68.9967 29.5515 69.9021 28.9546C70.8012 28.3576 71.6504 27.5533 72.4496 26.5417V16.2052C72.4496 15.7717 72.6057 15.4009 72.9117 15.1056C73.2176 14.8103 73.5923 14.6595 74.0231 14.6595C74.454 14.6595 74.8224 14.8103 75.1158 15.1056C75.4093 15.4072 75.5592 15.7717 75.5592 16.2052V30.9842C75.5592 31.4177 75.4093 31.7948 75.1158 32.1026C74.8161 32.4105 74.454 32.5676 74.0231 32.5676C73.5923 32.5676 73.2176 32.4105 72.9117 32.1026C72.6057 31.7948 72.4496 31.4177 72.4496 30.9842V29.5704C71.5817 30.538 70.6451 31.3046 69.6461 31.8764C68.6408 32.4482 67.4544 32.7373 66.0869 32.7373C64.8381 32.7373 63.7454 32.442 62.8213 31.845Z" fill="white"/>
<path d="M81.9904 32.1215C81.135 31.7068 80.4544 31.1036 79.9549 30.3118C79.4554 29.5201 79.1993 28.609 79.1993 27.5722C79.1993 25.8756 79.8675 24.5184 81.2037 23.5067C82.5399 22.4951 84.4943 21.9924 87.0731 21.9924H91.2129V21.7159C91.2129 20.2016 90.8445 19.1082 90.1014 18.4422C89.3584 17.7761 88.2032 17.4431 86.6298 17.4431C85.7618 17.4431 84.9938 17.5122 84.3194 17.6505C83.6451 17.7887 82.9021 17.9961 82.0778 18.2725C81.8968 18.3165 81.7469 18.3417 81.6345 18.3417C81.2911 18.3417 80.9976 18.216 80.7416 17.9646C80.4919 17.7133 80.367 17.4054 80.367 17.0347C80.367 16.4126 80.6604 15.979 81.2599 15.7277C83.2018 14.8983 85.1749 14.4898 87.1792 14.4898C88.7527 14.4898 90.0827 14.8103 91.1692 15.4512C92.2556 16.0921 93.0486 16.9279 93.5669 17.9458C94.0789 18.97 94.3349 20.0759 94.3349 21.2698V31.0156C94.3349 31.4492 94.1788 31.8199 93.8728 32.1152C93.5669 32.4105 93.1922 32.5613 92.7614 32.5613C92.3306 32.5613 91.9622 32.4105 91.6687 32.1152C91.369 31.8199 91.2254 31.4492 91.2254 31.0156V30.117C89.5395 31.8639 87.3915 32.7373 84.7878 32.7373C83.7762 32.7373 82.8459 32.5362 81.9904 32.1215ZM88.8526 29.2436C89.7892 28.7472 90.576 28.1377 91.2129 27.4025V24.5121H87.4852C84.0385 24.5121 82.3151 25.4169 82.3151 27.2329C82.3151 28.0623 82.5961 28.7284 83.1518 29.2311C83.7138 29.7337 84.6379 29.9914 85.9429 29.9914C86.9482 29.9851 87.916 29.74 88.8526 29.2436Z" fill="white"/>
<path d="M97.9939 32.1215C97.6942 31.8262 97.5505 31.4554 97.5505 31.0219V8.66497C97.5505 8.2314 97.7004 7.85439 97.9939 7.5465C98.2873 7.2386 98.6557 7.08151 99.0866 7.08151C99.5424 7.08151 99.917 7.23232 100.217 7.52765C100.51 7.82926 100.66 8.20627 100.66 8.66497V31.0219C100.66 31.4554 100.504 31.8262 100.198 32.1215C99.8921 32.4168 99.5174 32.5676 99.0866 32.5676C98.6495 32.5676 98.2873 32.4168 97.9939 32.1215Z" fill="white"/>
</svg>
